# xmcd CD database file
#
# Track frame offsets:
#	150
#	14383
#	31639
#	43312
#	55986
#	65416
#	79911
#
# Disc length: 1265 seconds
#
# Revision: 0
# Processed by: cddbd v1.5.2PL0 Copyright (c) Steve Scherf et al.
# Submitted via: CDex 1.51
#
DISCID=5504ef07
DTITLE=Jason Thomas - Trains, Guns, and Gallows
DYEAR=2010
DGENRE=Country
TTITLE0=Casey Jones
TTITLE1=Streets of Laredo
TTITLE2=The Rock Island Line
TTITLE3=Sam Hall
TTITLE4=Wreck of the Ol'97
TTITLE5=Nobody
TTITLE6=The Ballad of Stagger Lee
EXTD=YEAR: 2010
EXTT0=
EXTT1=
EXTT2=
EXTT3=
EXTT4=
EXTT5=
EXTT6=
PLAYORDER=
